<?xml version="1.0" encoding="utf-8"?>
<!-- Generator: Adobe Illustrator 26.0.0, SVG Export Plug-In . SVG Version: 6.00 Build 0)  -->
<svg version="1.1" id="Layer_1" xmlns="http://www.w3.org/2000/svg" xmlns:xlink="http://www.w3.org/1999/xlink" x="0px" y="0px"
	 viewBox="0 0 56 48" style="enable-background:new 0 0 56 48;" xml:space="preserve">
<style type="text/css">
	.st0{fill:#FFA500;}
	.st1{fill:#FFA500;stroke:#FFA500;stroke-width:1.6;stroke-linejoin:round;stroke-miterlimit:3.2;}
</style>
<g transform="translate(16,-2)">
	<g transform="matrix(.8 0 0 .8 16 4)">
		<g>
			<polygon class="st0" points="-34.6,4.4 -33.2,3.6 -32.4,2.1 -31.6,3.6 -30.1,4.4 -31.6,5.2 -32.4,6.7 -33.2,5.2 			"/>
		</g>
		<g>
			<polygon class="st0" points="-9.9,16.7 -8.4,16 -7.7,14.5 -6.8,16 -5.4,16.7 -6.8,17.6 -7.7,19.1 -8.4,17.6 			"/>
		</g>
		<g>
			<path class="st1" d="M-18.6,16.6c0-4.6,2.5-8.5,6.2-10.8c-1.9-1.1-4-1.6-6.2-1.6c-6.8,0-12.4,5.6-12.4,12.4s5.6,12.4,12.4,12.4
				c2.2,0,4.3-0.6,6.2-1.6C-16.1,25.2-18.6,21.2-18.6,16.6z"/>
		</g>
	</g>
</g>
</svg>
